<svg fill="none" height="96" viewBox="0 0 96 96" width="96" xmlns="http://www.w3.org/2000/svg" xmlns:xlink="http://www.w3.org/1999/xlink"><linearGradient id="a" gradientUnits="userSpaceOnUse" x1="3" x2="3" y1="0" y2="90"><stop offset="0" stop-color="#fff" stop-opacity=".5"/><stop offset="1" stop-opacity=".5"/></linearGradient><clipPath id="b"><path d="m0 0h32v32h-32z" transform="scale(3)"/></clipPath><filter id="c" color-interpolation-filters="sRGB" filterUnits="userSpaceOnUse" height="96" width="96" x="0" y="-1.5"><feFlood flood-opacity="0" result="BackgroundImageFix"/><feColorMatrix in="SourceAlpha" values="0 0 0 0 0 0 0 0 0 0 0 0 0 0 0 0 0 0 127 0"/><feOffset dy=".5"/><feGaussianBlur stdDeviation=".5"/><feColorMatrix values="0 0 0 0 0 0 0 0 0 0 0 0 0 0 0 0 0 0 0.199474 0"/><feBlend in2="BackgroundImageFix" result="effect1_dropShadow"/><feBlend in="SourceGraphic" in2="effect1_dropShadow" result="shape"/></filter><g clip-path="url(#b)"><g filter="url(#c)"><path d="m48 90c24.853 0 45-20.147 45-45s-20.147-45-45-45-45 20.147-45 45 20.147 45 45 45z" fill="#2b6def"/><path d="m48 90c24.853 0 45-20.147 45-45s-20.147-45-45-45-45 20.147-45 45 20.147 45 45 45z" fill="url(#a)"/><path d="m91.5 45c0 24.024-19.476 43.5-43.5 43.5s-43.5-19.476-43.5-43.5 19.476-43.5 43.5-43.5 43.5 19.476 43.5 43.5z" stroke="#000" stroke-opacity=".097"/></g><path clip-rule="evenodd" d="m66.002 24-8.988 5.182h-.01v10.366l-.033.006-26.971-15.554-8.995 5.183-.005-.003v32.231l8.995 5.186.006-.04v.038l8.999-5.185v-11.484l8.98 5.175.006.012.007-.005 9.012-5.159v11.466l8.958 5.163v.027l.024-.013.015.008.011-.024 8.948-5.154v-32.212l.04-.023z" fill="#fff" fill-rule="evenodd"/></g></svg>